ffprobe started on 2015-09-09 at 11:48:00
Report written to "ffprobe-20150909-114800.log"
Command line:
ffprobe -v debug -report -print_format json -show_format -show_streams "/media/mammoth-bats-1/CORO Bat Survey 2011/SOT_6Aug11/SOT_06Aug11_Cam4_Tape1.mov"
ffprobe version 2.7.2-1 Copyright (c) 2007-2015 the FFmpeg developers
  built with gcc 4.9.3 (Debian 4.9.3-2)
  configuration: --prefix=/usr --extra-version=1 --build-suffix=-ffmpeg --toolchain=hardened --libdir=/usr/lib/x86_64-linux-gnu --incdir=/usr/include/x86_64-linux-gnu --enable-gpl --enable-shared --disable-stripping --enable-avresample --enable-avisynth --enable-frei0r --enable-gnutls --enable-ladspa --enable-libass --enable-libbluray --enable-libbs2b --enable-libcaca --enable-libcdio --enable-libflite --enable-libfontconfig --enable-libfreetype --enable-libfribidi --enable-libgme --enable-libgsm --enable-libmodplug --enable-libmp3lame --enable-libopenjpeg --enable-openal --enable-libopus --enable-libpulse --enable-librtmp --enable-libschroedinger --enable-libshine --enable-libspeex --enable-libtheora --enable-libtwolame --enable-libvorbis --enable-libvpx --enable-libwavpack --enable-libwebp --enable-libxvid --enable-libzvbi --enable-opengl --enable-x11grab --enable-libdc1394 --enable-libiec61883 --enable-libzmq --enable-libssh --enable-libsoxr --enable-libx264 --enable-libopencv --enable-libx265
  libavutil      54. 27.100 / 54. 27.100
  libavcodec     56. 41.100 / 56. 41.100
  libavformat    56. 36.100 / 56. 36.100
  libavdevice    56.  4.100 / 56.  4.100
  libavfilter     5. 16.101 /  5. 16.101
  libavresample   2.  1.  0 /  2.  1.  0
  libswscale      3.  1.101 /  3.  1.101
  libswresample   1.  2.100 /  1.  2.100
  libpostproc    53.  3.100 / 53.  3.100
[mov,mp4,m4a,3gp,3g2,mj2 @ 0x13b1440] Format mov,mp4,m4a,3gp,3g2,mj2 probed with size=2048 and score=100
[mov,mp4,m4a,3gp,3g2,mj2 @ 0x13b1440] Before avformat_find_stream_info() pos: 24583947236 bytes read:828396 seeks:3
[mov,mp4,m4a,3gp,3g2,mj2 @ 0x13b1440] All info found
[mov,mp4,m4a,3gp,3g2,mj2 @ 0x13b1440] After avformat_find_stream_info() pos: 1928192 bytes read:2781164 seeks:4 frames:17
Input #0, mov,mp4,m4a,3gp,3g2,mj2, from '/media/mammoth-bats-1/CORO Bat Survey 2011/SOT_6Aug11/SOT_06Aug11_Cam4_Tape1.mov':
  Metadata:
    creation_time   : 2011-08-08 17:24:08
  Duration: 01:50:00.31, start: 0.014688, bitrate: 29797 kb/s
    Stream #0:0(eng), 16, 1/2997: Video: dvvideo, 1 reference frame (dvc  / 0x20637664), yuv411p(bt470bg/smpte240m/bt709, topleft), 720x480 [SAR 8:9 DAR 4:3], 1001/30000, 28771 kb/s, SAR 10:11 DAR 15:11, 29.97 fps, 29.97 tbr, 2997 tbn, 29.97 tbc (default)
    Metadata:
      creation_time   : 2011-08-08 19:14:12
      handler_name    : Apple Alias Data Handler
      encoder         : DV/DVCPRO - NTSC
    Stream #0:1(eng), 1, 1/31998: Audio: pcm_s16be (twos / 0x736F7774), 31998 Hz, stereo, s16, 1023 kb/s (default)
    Metadata:
      creation_time   : 2011-08-08 19:14:22
      handler_name    : Apple Alias Data Handler
detected 8 logical cores
[AVIOContext @ 0x13ae200] Statistics: 2781164 bytes read, 4 seeks
